<?xml version="1.0" encoding="UTF-8"?><svg id="Layer_1" xmlns="http://www.w3.org/2000/svg" viewBox="0 0 635.69 104.81"><defs><style>.cls-1{fill:#fff;}</style></defs><path class="cls-1" d="M0,104.81v-10.18H21.69c2.44,0,3.65-1.22,3.65-3.65V39.4c0-2.44-1.22-3.65-3.65-3.65H8.19v-10.18h15.72c4.57,0,7.91,1.05,10.02,3.16,2.1,2.1,3.15,5.44,3.15,10.02v52.91c0,4.57-1.05,7.91-3.15,10.02-2.1,2.1-5.44,3.15-10.02,3.15H0ZM30.1,17.16c-2.58,0-4.74-.83-6.47-2.49-1.73-1.66-2.6-3.71-2.6-6.14s.87-4.46,2.6-6.09c1.73-1.62,3.89-2.43,6.47-2.43s4.85,.81,6.59,2.43c1.73,1.62,2.6,3.65,2.6,6.09s-.87,4.48-2.6,6.14c-1.73,1.66-3.93,2.49-6.59,2.49Z"/><path class="cls-1" d="M77.43,81.79c-4.35,0-8.01-.76-10.96-2.27-2.95-1.51-5.17-3.54-6.64-6.09-1.48-2.55-2.21-5.33-2.21-8.36,0-5.39,1.97-9.59,5.92-12.62,3.95-3.02,9.54-4.54,16.77-4.54h14.17v-1.22c0-8.26-3.84-12.4-11.51-12.4-3.17,0-5.85,.68-8.02,2.05-2.18,1.37-3.64,3.56-4.37,6.58h-11.73c.59-5.75,3.08-10.31,7.47-13.67,4.39-3.36,9.94-5.04,16.66-5.04,8.12,0,14.02,1.99,17.71,5.98,3.69,3.98,5.53,9.48,5.53,16.49v33.76h-9.96l-1-8.08h-.77c-1.62,2.58-3.65,4.8-6.09,6.64-2.44,1.84-6.09,2.77-10.96,2.77Zm2.21-9.85c4.8,0,8.39-1.46,10.79-4.37,2.4-2.91,3.71-6.62,3.93-11.12h-12.84c-4.21,0-7.18,.68-8.91,2.05-1.73,1.37-2.6,3.27-2.6,5.7s.87,4.34,2.6,5.7c1.73,1.37,4.08,2.05,7.03,2.05Z"/><path class="cls-1" d="M126.14,80.46v-10.18h13.39v-30.88c0-2.44-1.18-3.65-3.54-3.65h-8.74v-10.18h13.17c3.02,0,5.5,.87,7.42,2.6,1.92,1.73,2.88,4.15,2.88,7.25v1.33h.55c.81-4.13,2.56-7.25,5.26-9.35,2.69-2.1,6.62-3.16,11.79-3.16h8.52v12.4h-11.95c-4.35,0-7.71,1.51-10.07,4.54-2.36,3.03-3.54,6.64-3.54,10.85v18.26h17.04v10.18h-42.17Z"/><path class="cls-1" d="M215.89,81.79c-5.31,0-10-1.2-14.06-3.6-4.06-2.4-7.23-5.74-9.52-10.02-2.29-4.28-3.43-9.26-3.43-14.94s1.12-10.81,3.38-15.16c2.25-4.35,5.42-7.75,9.52-10.18,4.1-2.44,8.84-3.65,14.22-3.65s9.89,1.2,13.72,3.6c3.84,2.4,6.81,5.59,8.91,9.57,2.1,3.98,3.15,8.38,3.15,13.17v2.38c0,.85-.04,1.79-.11,2.82h-41.28c.37,5.09,2.03,8.95,4.98,11.57,2.95,2.62,6.42,3.93,10.4,3.93,3.47,0,6.22-.72,8.25-2.16,2.03-1.44,3.52-3.41,4.48-5.92h11.84c-1.33,5.24-4.1,9.65-8.3,13.23-4.21,3.58-9.59,5.37-16.16,5.37Zm0-47.37c-3.62,0-6.83,1.09-9.63,3.27-2.81,2.18-4.61,5.22-5.42,9.13h29.22c-.3-3.69-1.73-6.68-4.32-8.96-2.58-2.29-5.87-3.43-9.85-3.43Z"/><path class="cls-1" d="M278.65,81.79c-4.58,0-8.67-1.09-12.29-3.26-3.62-2.18-6.47-5.4-8.58-9.69-2.1-4.28-3.15-9.55-3.15-15.83s1.07-11.55,3.21-15.83c2.14-4.28,5.04-7.51,8.69-9.68,3.65-2.18,7.73-3.27,12.23-3.27,4.21,0,7.67,.79,10.4,2.38,2.73,1.59,4.76,3.6,6.09,6.03V.77h11.73V80.46h-10.07l-1-8.08h-.66c-1.48,2.88-3.56,5.17-6.25,6.86-2.69,1.7-6.14,2.55-10.35,2.55Zm2.44-11.18c4.21,0,7.69-1.48,10.46-4.43,2.77-2.95,4.15-7.34,4.15-13.17s-1.38-10.31-4.15-13.23c-2.77-2.91-6.25-4.37-10.46-4.37s-7.69,1.48-10.46,4.43c-2.77,2.95-4.15,7.38-4.15,13.28s1.38,10.2,4.15,13.12c2.77,2.92,6.25,4.37,10.46,4.37Z"/><path class="cls-1" d="M399.47,81.79c-4.35,0-8.01-.76-10.96-2.27-2.95-1.51-5.17-3.54-6.64-6.09-1.48-2.55-2.21-5.33-2.21-8.36,0-5.39,1.97-9.59,5.92-12.62,3.95-3.02,9.54-4.54,16.77-4.54h14.17v-1.22c0-8.26-3.84-12.4-11.51-12.4-3.17,0-5.85,.68-8.02,2.05-2.18,1.37-3.63,3.56-4.37,6.58h-11.73c.59-5.75,3.08-10.31,7.47-13.67,4.39-3.36,9.94-5.04,16.66-5.04,8.12,0,14.02,1.99,17.71,5.98,3.69,3.98,5.53,9.48,5.53,16.49v33.76h-9.96l-1-8.08h-.77c-1.62,2.58-3.65,4.8-6.09,6.64-2.43,1.84-6.09,2.77-10.96,2.77Zm2.21-9.85c4.79,0,8.39-1.46,10.79-4.37,2.4-2.91,3.71-6.62,3.93-11.12h-12.84c-4.21,0-7.18,.68-8.91,2.05-1.73,1.37-2.6,3.27-2.6,5.7s.87,4.34,2.6,5.7c1.73,1.37,4.08,2.05,7.03,2.05Z"/><path class="cls-1" d="M447.42,80.46V25.57h9.74l1,6.42h.55c.96-2.29,2.43-4.15,4.43-5.59,1.99-1.44,4.35-2.16,7.08-2.16s4.98,.66,6.97,1.99c1.99,1.33,3.47,3.25,4.43,5.76h.44c.96-2.21,2.47-4.06,4.54-5.53,2.06-1.47,4.61-2.21,7.64-2.21,4.06,0,7.14,1.33,9.24,3.99,2.1,2.66,3.15,6.38,3.15,11.18v41.06h-11.29V41.73c0-2.21-.46-3.97-1.38-5.26-.92-1.29-2.38-1.94-4.37-1.94s-3.63,.77-4.93,2.32-1.94,3.73-1.94,6.53v37.08h-11.4V41.73c0-2.21-.44-3.97-1.33-5.26-.88-1.29-2.32-1.94-4.32-1.94s-3.65,.77-4.98,2.32-1.99,3.73-1.99,6.53v37.08h-11.29Z"/><path class="cls-1" d="M546.93,81.79c-5.31,0-10-1.2-14.06-3.6-4.06-2.4-7.23-5.74-9.52-10.02-2.29-4.28-3.43-9.26-3.43-14.94s1.12-10.81,3.38-15.16c2.25-4.35,5.42-7.75,9.52-10.18,4.09-2.44,8.83-3.65,14.22-3.65s9.89,1.2,13.72,3.6c3.84,2.4,6.81,5.59,8.91,9.57,2.1,3.98,3.15,8.38,3.15,13.17v2.38c0,.85-.04,1.79-.11,2.82h-41.28c.37,5.09,2.03,8.95,4.98,11.57,2.95,2.62,6.42,3.93,10.4,3.93,3.47,0,6.21-.72,8.25-2.16,2.03-1.44,3.52-3.41,4.48-5.92h11.84c-1.33,5.24-4.1,9.65-8.3,13.23-4.21,3.58-9.59,5.37-16.16,5.37Zm0-47.37c-3.62,0-6.83,1.09-9.63,3.27-2.81,2.18-4.61,5.22-5.42,9.13h29.22c-.29-3.69-1.73-6.68-4.32-8.96-2.58-2.29-5.87-3.43-9.85-3.43Z"/><path class="cls-1" d="M586.1,80.46V25.57h10.18l1,8.19h.55c1.48-2.66,3.76-4.91,6.86-6.75,3.1-1.84,6.68-2.77,10.74-2.77,6.71,0,11.77,2.03,15.16,6.09,3.39,4.06,5.09,10.04,5.09,17.93v32.21h-11.73v-30.77c0-4.57-.96-8.12-2.88-10.62-1.92-2.51-4.94-3.76-9.08-3.76s-7.43,1.37-10.13,4.1c-2.69,2.73-4.04,6.68-4.04,11.84v29.22h-11.73Z"/></svg>